<svg width="162" height="52" viewBox="0 0 162 52" fill="none" xmlns="http://www.w3.org/2000/svg">
<path d="M154.332 41.6V33.1824C154.089 33.6177 153.795 34.0236 153.449 34.4C153.103 34.7647 152.71 35.0883 152.272 35.3706C151.844 35.653 151.377 35.8706 150.869 36.0236C150.361 36.1883 149.819 36.2706 149.242 36.2706C147.891 36.2706 146.657 35.9471 145.537 35.3C144.417 34.653 143.523 33.6236 142.854 32.2118C142.184 30.7883 141.849 28.9354 141.849 26.653C141.849 24.5942 142.132 22.8766 142.698 21.5001C143.263 20.1119 144.065 19.0707 145.104 18.3766C146.143 17.6707 147.355 17.3178 148.74 17.3178C149.351 17.3178 149.934 17.3942 150.488 17.5472C151.042 17.6884 151.556 17.8942 152.029 18.1648C152.502 18.4354 152.929 18.7531 153.31 19.1178C153.703 19.4707 154.032 19.8648 154.297 20.3001L154.332 17.6707H159.387V41.6H154.332ZM150.454 32.4942C151.331 32.4942 152.058 32.2236 152.635 31.6824C153.212 31.1412 153.639 30.4295 153.916 29.5471C154.205 28.6648 154.349 27.7118 154.349 26.6883C154.349 25.0883 154.032 23.753 153.397 22.6824C152.762 21.6001 151.781 21.0589 150.454 21.0589C149.369 21.0589 148.451 21.5354 147.701 22.4883C146.951 23.4295 146.576 24.8295 146.576 26.6883C146.576 28.6059 146.934 30.053 147.649 31.0295C148.365 32.0059 149.3 32.4942 150.454 32.4942Z" fill="white"/>
<path d="M133.519 35.9177V17.6707H138.349V35.9177H133.519ZM133.467 15.0589V10.4178H138.383V15.0589H133.467Z" fill="white"/>
<path d="M126.783 36.1118C125.202 36.1118 123.979 35.9059 123.113 35.4941C122.259 35.0823 121.665 34.5059 121.33 33.7647C121.007 33.0235 120.845 32.1647 120.845 31.1882V21.253H117.937V17.6707H121.001L122.282 12.1648H125.883V17.653H129.865V21.253H125.883L125.918 30.9765C125.918 31.4235 125.97 31.7588 126.074 31.9824C126.189 32.1941 126.362 32.3353 126.593 32.4059C126.835 32.4647 127.141 32.4941 127.511 32.4941H129.917V35.6706C129.675 35.7765 129.311 35.8765 128.826 35.9706C128.342 36.0647 127.661 36.1118 126.783 36.1118Z" fill="white"/>
<path d="M108.492 36.2706C106.83 36.2706 105.347 35.8941 104.043 35.1412C102.738 34.3883 101.711 33.3118 100.961 31.9118C100.222 30.5001 99.853 28.8177 99.853 26.8648C99.853 24.9824 100.211 23.3236 100.926 21.8883C101.642 20.453 102.646 19.3354 103.939 18.5354C105.243 17.7236 106.761 17.3178 108.492 17.3178C109.992 17.3178 111.285 17.6295 112.37 18.2531C113.466 18.8766 114.326 19.7178 114.949 20.7766C115.584 21.8354 115.948 23.0177 116.04 24.3236H111.833C111.752 23.8413 111.585 23.3648 111.331 22.8942C111.077 22.4119 110.719 22.0177 110.258 21.7119C109.796 21.3942 109.219 21.2354 108.527 21.2354C107.349 21.2354 106.391 21.7001 105.653 22.6295C104.926 23.5471 104.562 24.9471 104.562 26.8295C104.562 28.6059 104.92 30.0177 105.635 31.0648C106.351 32.1 107.349 32.6177 108.63 32.6177C109.311 32.6177 109.877 32.4471 110.327 32.1059C110.789 31.7648 111.147 31.3589 111.4 30.8883C111.654 30.4059 111.816 29.9589 111.885 29.5471H115.988C115.907 30.8059 115.55 31.9471 114.915 32.9706C114.28 33.9824 113.414 34.7883 112.318 35.3883C111.233 35.9765 109.958 36.2706 108.492 36.2706Z" fill="white"/>
<path d="M86.4658 35.9177V17.6707H91.3306V21.9942C91.6192 21.0648 92.0231 20.253 92.5425 19.5589C93.0734 18.8531 93.714 18.306 94.4642 17.9178C95.2144 17.5178 96.0627 17.3178 97.0091 17.3178C97.1707 17.3178 97.3208 17.3295 97.4593 17.3531C97.6093 17.3648 97.7189 17.3884 97.7882 17.4236V22.3295C97.6843 22.2824 97.5574 22.253 97.4073 22.2413C97.2688 22.2295 97.1419 22.2177 97.0264 22.206C96.0339 22.1236 95.1855 22.153 94.4815 22.2942C93.7775 22.4354 93.2061 22.6766 92.7676 23.0177C92.329 23.3589 92.0116 23.7766 91.8154 24.2707C91.6192 24.7648 91.521 25.3177 91.521 25.9295V35.9177H86.4658Z" fill="white"/>
<path d="M60.0967 35.9175L69.0473 10.4H74.3968L83.3474 35.9175H78.3095L76.2666 30.0058H67.2468L65.1693 35.9175H60.0967ZM68.3894 25.5058H75.0374L71.7307 15.3588L68.3894 25.5058Z" fill="white"/>
<path d="M44.6051 7.61517C39.6699 2.70436 33.1084 0 26.129 0C19.1497 0 12.5881 2.70458 7.65295 7.61517C2.71777 12.526 0 19.0551 0 26C0 32.9449 2.71777 39.474 7.65295 44.3848C12.5881 49.2956 19.1497 52 26.129 52C33.1084 52 39.6702 49.2954 44.6051 44.3848C49.5403 39.474 52.2581 32.9449 52.2581 26C52.2581 19.0551 49.5403 12.5258 44.6051 7.61517ZM26.1288 48.9475C13.3923 48.9475 3.06739 38.6736 3.06739 26C3.06739 13.3264 13.3923 3.05245 26.1288 3.05245C38.8653 3.05245 49.1902 13.3264 49.1902 26C49.1902 38.6736 38.8653 48.9475 26.1288 48.9475Z" fill="#10B981"/>
<path d="M26.129 5.98235C15.0187 5.98235 6.01196 14.9446 6.01196 26C6.01196 37.0555 15.0187 46.0177 26.129 46.0177C37.2393 46.0177 46.246 37.0555 46.246 26C46.246 14.9446 37.2393 5.98235 26.129 5.98235ZM40.3318 25.1279C38.1418 22.75 35.0518 21.2426 31.8363 22.3936C32.4143 23.2963 32.7819 24.344 32.8705 25.4691C33.4705 25.5452 34.0694 25.6671 34.6411 25.95C37.8869 27.5558 39.7883 30.8959 39.586 34.5067C39.5184 35.7125 39.3499 36.8657 38.7739 37.9209C37.621 40.0329 34.5029 42.1333 32.1338 42.5915C33.2989 41.6465 34.2076 40.4241 34.7807 39.0034C36.2994 35.2398 35.7193 31.041 32.4199 28.4686C32.0144 29.4879 31.3662 30.3857 30.5458 31.0912C32.1533 33.7197 31.6215 36.8943 29.7829 39.2711C27.4206 42.3249 23.4226 43.5333 19.6866 42.393C16.9886 41.5697 14.6953 39.8583 12.9713 37.8209C17.2019 40.0209 22.8188 39.8634 26.175 36.293C27.1984 35.204 27.8812 33.9026 28.1047 32.4369C27.4793 32.6274 26.8158 32.7308 26.1285 32.7308C25.4116 32.7308 24.721 32.6182 24.0723 32.4117C23.2322 33.6719 21.9482 34.4717 20.4549 34.8419C16.3915 35.606 12.5888 34.0218 9.84586 31.0513C8.69475 29.8047 8.03145 28.3199 7.97423 26.602C7.90714 24.5855 8.18852 22.6272 8.94089 20.7266C9.32616 26.2126 15.0442 32.0027 20.9642 30.3406C20.1704 29.4068 19.6267 28.2567 19.438 26.9923C18.4973 26.8965 17.6498 26.6062 16.847 26.1065C13.6575 24.0807 12.2313 20.2526 12.7833 16.5754C13.0622 14.7168 13.9912 13.1273 15.4111 11.8966C16.7987 10.6935 18.3851 9.7781 20.2043 9.30184C16.2779 13.0009 15.5395 20.0172 19.8127 23.5928C20.2521 22.4552 20.993 21.4659 21.9383 20.7215C20.3414 17.6786 21.2301 13.9662 23.6464 11.5782C24.7746 10.4633 26.1465 9.59389 27.7071 9.17346C31.5946 8.12605 36.2188 10.7192 38.7788 13.6317C36.5123 12.6591 34.2415 12.1998 31.8764 12.5753C29.3061 12.9835 27.0846 14.3698 25.6623 16.5189C25.0739 17.4078 24.6756 18.3634 24.5767 19.4495C25.0755 19.3325 25.5945 19.2686 26.1288 19.2686C26.9224 19.2686 27.684 19.4064 28.3922 19.6573C29.6492 17.4609 32.1231 16.4432 34.6784 16.6915C38.4452 17.0575 41.0512 19.2742 43.0828 22.284C43.8758 23.4589 44.345 24.7749 44.3766 26.2115C44.4222 28.2804 44.0457 30.2727 43.3393 32.2161C43.158 29.4836 42.1422 27.0941 40.3318 25.1279Z" fill="white"/>
<path d="M26.1288 30.03C28.3656 30.03 30.1788 28.2257 30.1788 26C30.1788 23.7743 28.3656 21.97 26.1288 21.97C23.8921 21.97 22.0789 23.7743 22.0789 26C22.0789 28.2257 23.8921 30.03 26.1288 30.03Z" fill="#10B981"/>
</svg>
